<?xml version="1.0" encoding="utf-8"?>
<!-- Generator: Adobe Illustrator 27.8.1, SVG Export Plug-In . SVG Version: 6.00 Build 0)  -->
<svg version="1.1" xmlns="http://www.w3.org/2000/svg" xmlns:xlink="http://www.w3.org/1999/xlink" x="0px" y="0px"
	 viewBox="0 0 750 500" style="enable-background:new 0 0 750 500;" xml:space="preserve">
<style type="text/css">
	.st0{fill:url(#SVGID_1_);}
	.st1{opacity:0.1;fill:url(#SVGID_00000155134671083306988810000000810819393166178977_);}
	.st2{opacity:0.1;fill:url(#SVGID_00000044149768281947418750000007677379785568772019_);}
	.st3{opacity:0.12;fill:url(#SVGID_00000125602716151636601670000017218407691899721116_);}
	.st4{opacity:0.15;fill:url(#SVGID_00000052803537155255148000000007959793927745014689_);}
	.st5{opacity:0.2;fill:url(#SVGID_00000137124425026266366890000006717579808021974166_);}
	.st6{fill:url(#SVGID_00000080896236442520708040000010792182266866743451_);}
	.st7{fill:url(#SVGID_00000177484673894920176100000011606481639963170458_);}
	.st8{fill:url(#SVGID_00000174585703578984858550000009876299814105364927_);}
	.st9{fill:url(#SVGID_00000169557233719688106230000013526733717724106149_);}
	.st10{fill:url(#SVGID_00000036932929308684454330000009377601870307098009_);}
	.st11{fill:url(#SVGID_00000028298245560734868200000006470603490599283878_);}
	.st12{fill:#155269;}
	.st13{fill:#155670;}
	.st14{fill:#0E495F;}
	.st15{fill:url(#SVGID_00000088091018115820817960000003814548943989153429_);}
	.st16{fill:url(#SVGID_00000065043433759433491810000004434790937360613018_);}
	.st17{opacity:0.6;}
	.st18{fill:#FFFFFF;}
</style>
<g id="BACKGROUND">
	<g>
		<g>
			<linearGradient id="SVGID_1_" gradientUnits="userSpaceOnUse" x1="375" y1="389.9931" x2="375" y2="0">
				<stop  offset="0.3778" style="stop-color:#EDEFDA"/>
				<stop  offset="0.4352" style="stop-color:#E5ECD7"/>
				<stop  offset="0.525" style="stop-color:#CFE4CF"/>
				<stop  offset="0.6359" style="stop-color:#AAD7C1"/>
				<stop  offset="0.7591" style="stop-color:#7AC6AF"/>
				<stop  offset="1" style="stop-color:#50909E"/>
			</linearGradient>
			<rect class="st0" width="750" height="389.99"/>
			<g>
				
					<linearGradient id="SVGID_00000138550763927612435960000004058312343399591852_" gradientUnits="userSpaceOnUse" x1="570.157" y1="94.1834" x2="661.0486" y2="251.6123">
					<stop  offset="0" style="stop-color:#EDEFDA"/>
					<stop  offset="1" style="stop-color:#EDEFDA;stop-opacity:0.2757"/>
				</linearGradient>
				
					<circle style="opacity:0.1;fill:url(#SVGID_00000138550763927612435960000004058312343399591852_);" cx="615.6" cy="172.9" r="90.91"/>
				
					<linearGradient id="SVGID_00000121983949501350967550000010931090371321036463_" gradientUnits="userSpaceOnUse" x1="577.6558" y1="107.1714" x2="653.5502" y2="238.6244">
					<stop  offset="0" style="stop-color:#EDEFDA"/>
					<stop  offset="1" style="stop-color:#EDEFDA;stop-opacity:0.2757"/>
				</linearGradient>
				<path style="opacity:0.1;fill:url(#SVGID_00000121983949501350967550000010931090371321036463_);" d="M615.6,248.81
					c-41.86,0-75.91-34.05-75.91-75.91c0-41.86,34.05-75.91,75.91-75.91c41.86,0,75.91,34.05,75.91,75.91
					C691.51,214.75,657.46,248.81,615.6,248.81z"/>
				
					<linearGradient id="SVGID_00000119090725288177065210000008075357573678810505_" gradientUnits="userSpaceOnUse" x1="585.1544" y1="120.1594" x2="646.0516" y2="225.6364">
					<stop  offset="0" style="stop-color:#EDEFDA"/>
					<stop  offset="1" style="stop-color:#EDEFDA;stop-opacity:0.2757"/>
				</linearGradient>
				<path style="opacity:0.12;fill:url(#SVGID_00000119090725288177065210000008075357573678810505_);" d="M615.6,233.81
					c-33.58,0-60.91-27.32-60.91-60.91c0-33.58,27.32-60.91,60.91-60.91c33.59,0,60.91,27.32,60.91,60.91
					C676.51,206.48,649.19,233.81,615.6,233.81z"/>
				
					<linearGradient id="SVGID_00000158024690035986246560000009141935940992799666_" gradientUnits="userSpaceOnUse" x1="592.6528" y1="133.147" x2="638.5532" y2="212.6488">
					<stop  offset="0" style="stop-color:#EDEFDA"/>
					<stop  offset="1" style="stop-color:#EDEFDA;stop-opacity:0.2757"/>
				</linearGradient>
				<path style="opacity:0.15;fill:url(#SVGID_00000158024690035986246560000009141935940992799666_);" d="M615.6,218.81
					c-25.31,0-45.91-20.59-45.91-45.91c0-25.31,20.59-45.91,45.91-45.91c25.32,0,45.91,20.59,45.91,45.91
					C661.51,198.21,640.92,218.81,615.6,218.81z"/>
				
					<linearGradient id="SVGID_00000016762235939999596320000013437925694447280279_" gradientUnits="userSpaceOnUse" x1="600.1453" y1="146.125" x2="631.0601" y2="199.6709">
					<stop  offset="0" style="stop-color:#EDEFDA"/>
					<stop  offset="1" style="stop-color:#EDEFDA;stop-opacity:0.2757"/>
				</linearGradient>
				
					<circle style="opacity:0.2;fill:url(#SVGID_00000016762235939999596320000013437925694447280279_);" cx="615.6" cy="172.9" r="30.91"/>
				
					<linearGradient id="SVGID_00000160171827207352586390000012046219455918088383_" gradientUnits="userSpaceOnUse" x1="606.3962" y1="156.9519" x2="624.8091" y2="188.844">
					<stop  offset="0" style="stop-color:#EDEFDA"/>
					<stop  offset="1" style="stop-color:#EDEFDA;stop-opacity:0.571"/>
				</linearGradient>
				<circle style="fill:url(#SVGID_00000160171827207352586390000012046219455918088383_);" cx="615.6" cy="172.9" r="18.41"/>
			</g>
			
				<linearGradient id="SVGID_00000082365634845454500190000015649732743584695997_" gradientUnits="userSpaceOnUse" x1="278.9246" y1="363.5167" x2="278.9246" y2="187.2095">
				<stop  offset="0.4866" style="stop-color:#B3DBCF"/>
				<stop  offset="0.886" style="stop-color:#A6D0C0"/>
			</linearGradient>
			<polygon style="fill:url(#SVGID_00000082365634845454500190000015649732743584695997_);" points="128.69,290.26 180.97,244.21 
				207.17,225.6 213.97,225.6 251.81,187.21 299,222.23 309.07,222.23 348.86,252.54 429.16,363.52 128.69,363.52 			"/>
			
				<linearGradient id="SVGID_00000080189490261757162020000010964680549684368780_" gradientUnits="userSpaceOnUse" x1="500.7843" y1="370.3765" x2="500.7843" y2="183.7144">
				<stop  offset="0.4866" style="stop-color:#B3DBCF"/>
				<stop  offset="0.886" style="stop-color:#A6D0C0"/>
			</linearGradient>
			<polygon style="fill:url(#SVGID_00000080189490261757162020000010964680549684368780_);" points="355.68,290.44 390.95,259.38 
				404.64,253.59 435.18,223.58 445.18,219.89 464.66,203.57 475.72,198.83 489.37,183.71 510.1,194.04 526.3,205.24 535.37,205.24 
				556.11,222.35 722.64,295.3 722.64,370.38 278.92,370.38 335.21,299.17 			"/>
			
				<linearGradient id="SVGID_00000000935667419241241510000009964668866961080998_" gradientUnits="userSpaceOnUse" x1="375" y1="429.9956" x2="375" y2="153.7125">
				<stop  offset="0.3518" style="stop-color:#91D5C1"/>
				<stop  offset="0.805" style="stop-color:#84BFB0"/>
			</linearGradient>
			<polygon style="fill:url(#SVGID_00000000935667419241241510000009964668866961080998_);" points="750,213.77 732.06,190.09 
				723.05,190.09 672.82,153.71 622.33,199.6 618.65,205.79 589.97,214.64 570.71,231.65 554.4,251.76 525.56,269.24 485.81,307.62 
				451.52,262.15 407.98,237.41 396.97,237.41 345.34,208.81 303.93,240.16 296.5,240.16 267.45,256.88 253.24,260.25 
				250.49,262.36 238.95,254.37 209.13,241.76 190.38,225.38 169.48,212.14 141.41,207.34 136.86,202.14 81.83,166.25 42.27,204.82 
				33.97,205.83 0,225.69 0,430 750,430 			"/>
			
				<linearGradient id="SVGID_00000023972404008035227590000005104266441168476306_" gradientUnits="userSpaceOnUse" x1="560.4288" y1="429.9956" x2="560.4288" y2="153.7125">
				<stop  offset="0" style="stop-color:#598DA6"/>
				<stop  offset="1" style="stop-color:#4B8095"/>
			</linearGradient>
			<polygon style="fill:url(#SVGID_00000023972404008035227590000005104266441168476306_);" points="370.86,430 370.86,367.26 
				551.48,286.18 574.27,251.57 673.18,198.64 715.89,189.42 715.89,176.24 750,153.71 750,430 			"/>
			
				<linearGradient id="SVGID_00000017487158626763682130000008058107717439667123_" gradientUnits="userSpaceOnUse" x1="269.6888" y1="429.9956" x2="269.6888" y2="177.262">
				<stop  offset="0" style="stop-color:#357186"/>
				<stop  offset="1" style="stop-color:#2C5977"/>
			</linearGradient>
			<polygon style="fill:url(#SVGID_00000017487158626763682130000008058107717439667123_);" points="539.38,430 411.29,351.47 
				362.1,337.57 315.37,307.25 274.58,297.13 240.49,278.99 228.09,273.83 223.64,263.39 134.5,239.6 55.9,191.17 0,177.26 0,430 
							"/>
			<polygon class="st12" points="0,230.02 29.33,251.46 41.36,254 60.91,269.76 82.47,274.1 168.9,349.5 187.8,354.09 272.5,403.25 
				282.6,405.86 322.43,430 0,430 			"/>
			<polygon class="st13" points="750,348.42 720.14,332.62 709.9,332.62 652.81,305.42 595.42,339.72 591.23,344.36 558.63,350.97 
				536.74,363.68 518.21,378.71 485.42,391.78 425.24,430 750,430 			"/>
			<polygon class="st14" points="699.07,327.26 645.35,336.8 599.97,340.32 566.64,356.89 532.37,368.94 501.81,368.94 
				446.6,375.97 427.72,375.97 362.9,386.51 290.66,378.48 261.96,377.98 242.51,372.45 186.94,359.9 127.67,356.89 95.26,336.8 
				38.77,327.26 0,327.26 0,500 750,500 750,329.77 			"/>
			
				<linearGradient id="SVGID_00000121971888759581971790000012760643502633220738_" gradientUnits="userSpaceOnUse" x1="162.6231" y1="500" x2="162.6231" y2="311.1182">
				<stop  offset="0" style="stop-color:#0B2E40"/>
				<stop  offset="1" style="stop-color:#0B3751"/>
			</linearGradient>
			<polygon style="fill:url(#SVGID_00000121971888759581971790000012760643502633220738_);" points="0,311.12 82.02,363.13 
				88.01,370.15 134.61,380.18 165.89,399.45 192.38,422.24 239.23,442.06 325.25,500 0,500 			"/>
			
				<linearGradient id="SVGID_00000123412419251026218240000001103873654446190526_" gradientUnits="userSpaceOnUse" x1="588.9442" y1="500" x2="588.9442" y2="383.0839">
				<stop  offset="0" style="stop-color:#0B2E40"/>
				<stop  offset="1" style="stop-color:#0B3751"/>
			</linearGradient>
			<polygon style="fill:url(#SVGID_00000123412419251026218240000001103873654446190526_);" points="750,383.08 717.75,398.06 
				705.78,399.7 686.51,410.75 665.04,413.52 596.94,439.49 578.13,442.49 517.32,473.57 507.28,475.28 427.89,500 750,500 			"/>
		</g>
		<g class="st17">
			<path class="st18" d="M475.11,155.84c-0.42-0.16-0.64-0.63-0.48-1.06c0.16-0.42,0.63-0.64,1.06-0.48
				c0.42,0.16,0.64,0.63,0.48,1.06C476,155.79,475.53,156,475.11,155.84z"/>
			<path class="st18" d="M428.59,178.72c-0.42-0.16-0.64-0.63-0.48-1.06c0.16-0.42,0.63-0.64,1.06-0.48
				c0.42,0.16,0.64,0.63,0.48,1.06C429.49,178.67,429.01,178.89,428.59,178.72z"/>
			<path class="st18" d="M595.21,125.92c-0.52-0.2-0.78-0.78-0.58-1.29c0.2-0.52,0.78-0.78,1.29-0.58c0.52,0.2,0.78,0.78,0.58,1.29
				C596.31,125.86,595.73,126.12,595.21,125.92z"/>
			<path class="st18" d="M206.61,129.32c-0.41-0.16-0.62-0.62-0.47-1.04c0.16-0.41,0.62-0.62,1.04-0.47
				c0.42,0.16,0.62,0.62,0.47,1.04C207.48,129.27,207.02,129.48,206.61,129.32z"/>
			<path class="st18" d="M617.5,157.5c-0.52-0.2-0.78-0.78-0.58-1.29c0.2-0.52,0.78-0.78,1.29-0.58c0.52,0.2,0.78,0.78,0.58,1.29
				C618.6,157.43,618.02,157.69,617.5,157.5z"/>
			<path class="st18" d="M567.97,165.84c-0.52-0.2-0.78-0.78-0.58-1.29c0.2-0.52,0.78-0.78,1.29-0.58c0.52,0.2,0.78,0.78,0.58,1.29
				C569.07,165.77,568.49,166.04,567.97,165.84z"/>
			<path class="st18" d="M194.75,184.51c-0.08-0.44,0.21-0.85,0.65-0.93c0.44-0.08,0.85,0.21,0.93,0.65
				c0.08,0.44-0.21,0.85-0.65,0.93C195.25,185.24,194.83,184.94,194.75,184.51z"/>
			<path class="st18" d="M623.68,69.08c-0.48-0.18-0.73-0.72-0.54-1.21c0.18-0.48,0.72-0.73,1.21-0.54
				c0.48,0.18,0.73,0.72,0.54,1.21C624.7,69.02,624.16,69.26,623.68,69.08z"/>
			<path class="st18" d="M687.11,91.7c-0.34-0.13-0.51-0.51-0.38-0.85c0.13-0.34,0.51-0.51,0.85-0.38c0.34,0.13,0.51,0.51,0.38,0.85
				C687.83,91.66,687.45,91.83,687.11,91.7z"/>
			<path class="st18" d="M141.27,77.59c-0.41-0.16-0.62-0.62-0.47-1.04c0.16-0.42,0.62-0.62,1.04-0.47
				c0.41,0.16,0.62,0.62,0.47,1.04C142.15,77.54,141.68,77.75,141.27,77.59z"/>
			<path class="st18" d="M365.74,117.01c-0.41-0.16-0.62-0.62-0.47-1.04c0.16-0.42,0.62-0.62,1.04-0.47
				c0.42,0.16,0.62,0.62,0.47,1.04C366.62,116.96,366.15,117.17,365.74,117.01z"/>
			<path class="st18" d="M57.39,66.44c-0.42-0.16-0.62-0.62-0.47-1.04c0.16-0.41,0.62-0.62,1.04-0.47c0.41,0.16,0.62,0.62,0.47,1.04
				C58.27,66.39,57.81,66.6,57.39,66.44z"/>
			<path class="st18" d="M205.26,109.11c-0.34-0.13-0.51-0.51-0.38-0.85c0.13-0.34,0.51-0.51,0.85-0.38
				c0.34,0.13,0.51,0.51,0.38,0.85C205.98,109.07,205.6,109.24,205.26,109.11z"/>
			<path class="st18" d="M91.38,143.29c-0.48-0.18-0.73-0.72-0.54-1.21c0.18-0.48,0.72-0.73,1.21-0.54
				c0.48,0.18,0.73,0.72,0.54,1.21C92.41,143.23,91.87,143.48,91.38,143.29z"/>
			<path class="st18" d="M342.52,67.84c-0.85-0.32-1.27-1.27-0.95-2.11c0.32-0.85,1.27-1.27,2.11-0.95
				c0.85,0.32,1.27,1.27,0.95,2.11C344.32,67.73,343.37,68.16,342.52,67.84z"/>
			<path class="st18" d="M708.42,162.59c-0.48-0.18-0.73-0.72-0.54-1.21c0.18-0.48,0.72-0.73,1.21-0.54
				c0.48,0.18,0.73,0.72,0.54,1.21C709.44,162.53,708.9,162.77,708.42,162.59z"/>
			<path class="st18" d="M193.39,53.04c-0.42-0.16-0.62-0.62-0.47-1.04c0.16-0.41,0.62-0.62,1.04-0.47
				c0.41,0.16,0.62,0.62,0.47,1.04C194.27,52.99,193.8,53.2,193.39,53.04z"/>
			<path class="st18" d="M263.31,65.18c-0.34-0.13-0.51-0.51-0.38-0.85c0.13-0.34,0.51-0.51,0.85-0.38
				c0.34,0.13,0.51,0.51,0.38,0.85C264.03,65.13,263.65,65.3,263.31,65.18z"/>
			<path class="st18" d="M282.8,36.3c-0.48-0.18-0.73-0.72-0.54-1.21c0.18-0.48,0.72-0.73,1.21-0.54c0.48,0.18,0.73,0.72,0.54,1.21
				C283.83,36.24,283.29,36.49,282.8,36.3z"/>
			<path class="st18" d="M215.32,50.46c-0.48-0.18-0.73-0.72-0.54-1.21c0.18-0.48,0.72-0.73,1.21-0.54
				c0.48,0.18,0.73,0.72,0.54,1.21C216.35,50.4,215.8,50.64,215.32,50.46z"/>
			<path class="st18" d="M643.4,150.36c-0.86-0.32-1.29-1.28-0.96-2.14c0.32-0.86,1.28-1.29,2.14-0.96
				c0.86,0.32,1.29,1.28,0.96,2.14C645.21,150.26,644.25,150.69,643.4,150.36z"/>
			<path class="st18" d="M144.15,184.49c-0.86-0.32-1.29-1.28-0.96-2.14s1.28-1.29,2.14-0.96c0.86,0.32,1.29,1.28,0.96,2.14
				C145.96,184.38,145,184.81,144.15,184.49z"/>
			<path class="st18" d="M702.63,123.83c-0.34-0.13-0.51-0.51-0.38-0.85c0.13-0.34,0.51-0.51,0.85-0.38
				c0.34,0.13,0.51,0.51,0.38,0.85C703.35,123.78,702.97,123.95,702.63,123.83z"/>
			<path class="st18" d="M155.65,69.18c-0.36,0.07-0.71-0.17-0.78-0.53c-0.07-0.36,0.17-0.71,0.53-0.78s0.71,0.17,0.78,0.53
				C156.26,68.76,156.02,69.11,155.65,69.18z"/>
			<path class="st18" d="M246.31,93.04c0.51-0.09,0.99,0.24,1.08,0.75c0.09,0.51-0.24,0.99-0.75,1.08
				c-0.51,0.09-0.99-0.24-1.08-0.75C245.47,93.62,245.8,93.14,246.31,93.04z"/>
			<path class="st18" d="M308.85,176.62c0.81-0.15,1.59,0.39,1.74,1.2c0.15,0.81-0.39,1.59-1.2,1.74c-0.81,0.15-1.59-0.39-1.74-1.2
				S308.04,176.77,308.85,176.62z"/>
			<path class="st18" d="M329.47,52.42c0.36-0.07,0.71,0.17,0.78,0.53c0.07,0.36-0.17,0.71-0.53,0.78
				c-0.36,0.07-0.71-0.17-0.78-0.53C328.87,52.83,329.1,52.49,329.47,52.42z"/>
			<path class="st18" d="M290.97,133.9c-0.9,0.17-1.77-0.43-1.94-1.34c-0.17-0.9,0.43-1.77,1.34-1.94c0.9-0.17,1.77,0.43,1.94,1.34
				C292.47,132.86,291.88,133.73,290.97,133.9z"/>
			<path class="st18" d="M33.79,149.15c-0.36,0.07-0.71-0.17-0.78-0.53c-0.07-0.36,0.17-0.71,0.53-0.78
				c0.36-0.07,0.71,0.17,0.78,0.53C34.39,148.74,34.15,149.08,33.79,149.15z"/>
			<path class="st18" d="M372.68,137.75c-0.9,0.17-1.77-0.43-1.94-1.34c-0.17-0.9,0.43-1.77,1.34-1.94c0.9-0.17,1.77,0.43,1.94,1.34
				C374.18,136.72,373.58,137.59,372.68,137.75z"/>
			<path class="st18" d="M81.18,90.18c-0.51,0.09-0.99-0.24-1.08-0.75c-0.09-0.51,0.24-0.99,0.75-1.08
				c0.51-0.09,0.99,0.24,1.08,0.75C82.02,89.61,81.69,90.09,81.18,90.18z"/>
			<path class="st18" d="M105.6,165.27c-0.51,0.09-0.99-0.24-1.08-0.75c-0.09-0.51,0.24-0.99,0.75-1.08
				c0.51-0.09,0.99,0.24,1.08,0.75C106.44,164.69,106.11,165.17,105.6,165.27z"/>
			<path class="st18" d="M195.91,174.99c-0.51,0.09-0.99-0.24-1.08-0.75c-0.09-0.51,0.24-0.99,0.75-1.08
				c0.51-0.09,0.99,0.24,1.08,0.75C196.75,174.41,196.42,174.89,195.91,174.99z"/>
			<path class="st18" d="M460.24,43c-0.08-0.44,0.21-0.85,0.65-0.93c0.44-0.08,0.85,0.22,0.93,0.65c0.08,0.44-0.21,0.85-0.65,0.93
				C460.73,43.73,460.32,43.44,460.24,43z"/>
			<path class="st18" d="M444.47,77.96c-0.08-0.44,0.21-0.85,0.65-0.93c0.44-0.08,0.85,0.21,0.93,0.65
				c0.08,0.44-0.21,0.85-0.65,0.93C444.96,78.69,444.54,78.4,444.47,77.96z"/>
			<path class="st18" d="M464.73,118.99c-0.08-0.44,0.21-0.85,0.65-0.93c0.44-0.08,0.85,0.21,0.93,0.65
				c0.08,0.44-0.21,0.85-0.65,0.93C465.22,119.72,464.8,119.43,464.73,118.99z"/>
			<path class="st18" d="M500.22,105.94c-0.48-0.18-0.73-0.72-0.54-1.21c0.18-0.48,0.72-0.73,1.21-0.54
				c0.48,0.18,0.73,0.72,0.54,1.21C501.25,105.88,500.71,106.13,500.22,105.94z"/>
			<path class="st18" d="M559.74,62.39c-0.48-0.18-0.73-0.72-0.54-1.21c0.18-0.48,0.72-0.73,1.21-0.54
				c0.48,0.18,0.73,0.72,0.54,1.21C560.77,62.32,560.23,62.57,559.74,62.39z"/>
			<path class="st18" d="M526.44,32.41c0.32-0.06,0.64,0.15,0.7,0.48c0.06,0.32-0.15,0.64-0.48,0.7c-0.32,0.06-0.64-0.15-0.7-0.48
				C525.9,32.78,526.11,32.47,526.44,32.41z"/>
			<path class="st18" d="M480.55,85.63c-0.9,0.17-1.77-0.43-1.94-1.34c-0.17-0.9,0.43-1.77,1.34-1.94c0.9-0.17,1.77,0.43,1.94,1.34
				C482.06,84.59,481.46,85.46,480.55,85.63z"/>
			<path class="st18" d="M558.25,113.73c0.39-0.21,0.88-0.06,1.09,0.33c0.21,0.39,0.06,0.88-0.33,1.09
				c-0.39,0.21-0.88,0.06-1.09-0.33C557.71,114.43,557.86,113.94,558.25,113.73z"/>
			<path class="st18" d="M567.66,111.86c-0.25-0.45-0.08-1.02,0.37-1.26c0.45-0.25,1.02-0.08,1.26,0.37
				c0.25,0.45,0.08,1.02-0.37,1.26C568.47,112.47,567.9,112.31,567.66,111.86z"/>
			<path class="st18" d="M680.11,32.73c-0.08-0.44,0.21-0.85,0.65-0.93c0.44-0.08,0.85,0.21,0.93,0.65
				c0.08,0.44-0.21,0.85-0.65,0.93C680.61,33.46,680.19,33.17,680.11,32.73z"/>
			<path class="st18" d="M700.37,73.76c-0.08-0.44,0.21-0.85,0.65-0.93c0.44-0.08,0.85,0.21,0.93,0.65
				c0.08,0.44-0.21,0.85-0.65,0.93C700.87,74.49,700.45,74.2,700.37,73.76z"/>
			<path class="st18" d="M735.87,60.71c-0.48-0.18-0.73-0.72-0.54-1.21c0.18-0.48,0.72-0.73,1.21-0.54
				c0.48,0.18,0.73,0.72,0.54,1.21C736.89,60.65,736.35,60.9,735.87,60.71z"/>
			<path class="st18" d="M716.02,39.41c-0.36,0.07-0.71-0.17-0.78-0.53c-0.07-0.36,0.17-0.71,0.53-0.78
				c0.36-0.07,0.71,0.17,0.78,0.53C716.62,39,716.38,39.35,716.02,39.41z"/>
			<path class="st18" d="M62.89,91.7c0.34-0.13,0.51-0.51,0.38-0.85c-0.13-0.34-0.51-0.51-0.85-0.38c-0.34,0.13-0.51,0.51-0.38,0.85
				C62.17,91.66,62.55,91.83,62.89,91.7z"/>
			<path class="st18" d="M41.58,162.59c0.48-0.18,0.73-0.72,0.54-1.21c-0.18-0.48-0.72-0.73-1.21-0.54
				c-0.48,0.18-0.73,0.72-0.54,1.21C40.56,162.53,41.1,162.77,41.58,162.59z"/>
			<path class="st18" d="M307.18,102.96c0.86-0.32,1.29-1.28,0.96-2.14c-0.32-0.86-1.28-1.29-2.14-0.96
				c-0.86,0.32-1.29,1.28-0.96,2.14C305.37,102.85,306.33,103.28,307.18,102.96z"/>
			<path class="st18" d="M47.37,123.83c0.34-0.13,0.51-0.51,0.38-0.85c-0.13-0.34-0.51-0.51-0.85-0.38
				c-0.34,0.13-0.51,0.51-0.38,0.85C46.65,123.78,47.03,123.95,47.37,123.83z"/>
			<path class="st18" d="M69.89,32.73c0.08-0.44-0.21-0.85-0.65-0.93c-0.44-0.08-0.85,0.21-0.93,0.65
				c-0.08,0.44,0.21,0.85,0.65,0.93C69.39,33.46,69.81,33.17,69.89,32.73z"/>
			<path class="st18" d="M49.63,73.76c0.08-0.44-0.22-0.85-0.65-0.93c-0.44-0.08-0.85,0.21-0.93,0.65
				c-0.08,0.44,0.21,0.85,0.65,0.93C49.13,74.49,49.55,74.2,49.63,73.76z"/>
			<path class="st18" d="M14.13,60.71c0.48-0.18,0.73-0.72,0.54-1.21c-0.18-0.48-0.72-0.73-1.21-0.54
				c-0.48,0.18-0.73,0.72-0.54,1.21C13.11,60.65,13.65,60.9,14.13,60.71z"/>
			<path class="st18" d="M33.98,39.41c0.36,0.07,0.71-0.17,0.78-0.53c0.07-0.36-0.17-0.71-0.53-0.78c-0.36-0.07-0.71,0.17-0.78,0.53
				C33.38,39,33.62,39.35,33.98,39.41z"/>
		</g>
	</g>
</g>
<g id="OBJECTS">
</g>
</svg>
